<svg xmlns="http://www.w3.org/2000/svg" id="Icona_Calendario" width="12.735" height="12.56" data-name="Icona Calendario" viewBox="0 0 12.735 12.56">
    <defs>
        <style>
            .cls-1{fill:#0047bb}
        </style>
    </defs>
    <path id="Path_410" d="M4051.61 1175.558h-10.094a1.322 1.322 0 0 0-1.321 1.321v9.919a1.322 1.322 0 0 0 1.321 1.321h10.094a1.322 1.322 0 0 0 1.321-1.321v-9.919a1.322 1.322 0 0 0-1.321-1.321zm-10.094.422h10.094a.9.9 0 0 1 .9.9v1.763h-11.891v-1.763a.9.9 0 0 1 .897-.9zm10.094 11.717h-10.094a.9.9 0 0 1-.9-.9v-7.734h11.891v7.734a.9.9 0 0 1-.897.903z" class="cls-1" data-name="Path 410" transform="translate(-4040.195 -1175.558)"/>
    <g id="Group_1494" data-name="Group 1494" transform="translate(2.851 1.331)">
        <path id="Path_411" d="M4087.652 1195.493a.5.5 0 1 0-.5-.5.5.5 0 0 0 .5.5z" class="cls-1" data-name="Path 411" transform="translate(-4087.147 -1194.484)"/>
        <path id="Path_412" d="M4190.907 1195.493a.5.5 0 1 0-.5-.5.5.5 0 0 0 .5.5z" class="cls-1" data-name="Path 412" transform="translate(-4184.567 -1194.484)"/>
    </g>
    <g id="Group_1493" data-name="Group 1493" transform="translate(3.563 4.797)">
        <path id="Path_413" d="M4104.371 1246.079l1.529-1.764.015-.539h-3.249v.609h2.369l-1.452 1.7v.553h.571a1.234 1.234 0 0 1 .885.29 1.1 1.1 0 0 1 .3.833 1.106 1.106 0 0 1-1.161 1.142 1.439 1.439 0 0 1-.449-.07 1.631 1.631 0 0 1-.351-.155 1.556 1.556 0 0 1-.253-.2 1.978 1.978 0 0 1-.15-.155q-.032-.042-.051-.07l-.384.478.056.075a1.5 1.5 0 0 0 .2.2 2.794 2.794 0 0 0 .318.234 1.724 1.724 0 0 0 .468.2 2.248 2.248 0 0 0 .6.08 1.765 1.765 0 0 0 1.334-.5 1.742 1.742 0 0 0 .482-1.259 1.717 1.717 0 0 0-.423-1.227 1.617 1.617 0 0 0-1.204-.455z" class="cls-1" data-name="Path 413" transform="translate(-4102.544 -1243.776)"/>
        <path id="Path_414" d="M4159.4 1244.385h1.161v5.009h.655v-5.618h-1.816z" class="cls-1" data-name="Path 414" transform="translate(-4155.403 -1243.776)"/>
    </g>
</svg>
