<svg xmlns="http://www.w3.org/2000/svg" id="codice_a_barre" width="29.418" height="23.167" data-name="codice a barre" viewBox="0 0 29.418 23.167">
    <defs>
        <style>
            .cls-1{fill:#0047bb}
        </style>
    </defs>
    <g id="Group_611" data-name="Group 611">
        <g id="Jj0mBp.tif">
            <g id="Group_610" data-name="Group 610">
                <path id="Path_176" d="M2828.239 450.771v6.665c0 .464 0 .467-.459.467h-3.694c-.394 0-.4-.005-.4-.406v-13.532c0-.422 0-.425.42-.425h3.734c.393 0 .4.005.4.4l-.001 6.831z" class="cls-1" data-name="Path 176" transform="translate(-2820.844 -440.71)"/>
                <path id="Path_177" d="M2913.042 450.707v6.71c0 .464 0 .465-.46.466h-2.25c-.517 0-.518 0-.518-.539v-11.371c0-.7.009-1.393 0-2.089-.005-.28.1-.373.374-.369.8.013 1.607 0 2.411 0 .444 0 .447 0 .448.437l-.005 6.755z" class="cls-1" data-name="Path 177" transform="translate(-2893.121 -440.69)"/>
                <path id="Path_178" d="M2867.524 450.675v-6.712c0-.434 0-.435.446-.437.5 0 .992.008 1.487 0 .237-.005.354.075.332.322-.008.093 0 .187 0 .281v13.181c0 .094-.005.188 0 .281.011.2-.061.3-.274.3-.576-.005-1.152 0-1.728 0-.184 0-.275-.071-.264-.262.006-.107 0-.214 0-.322l.001-6.632z" class="cls-1" data-name="Path 178" transform="translate(-2857.633 -440.697)"/>
                <path id="Path_179" d="M2962.79 450.671v6.749c0 .467 0 .468-.458.469-.295 0-.59-.007-.884 0-.2.006-.3-.068-.289-.278.006-.093 0-.187 0-.281v-13.257c0-.08.005-.161 0-.241-.015-.215.064-.32.3-.312.361.013.723.008 1.085 0 .167 0 .248.069.247.236v.321l-.001 6.594z" class="cls-1" data-name="Path 179" transform="translate(-2936.212 -440.697)"/>
                <path id="Path_180" d="M2891.831 448.234v6.865a1.8 1.8 0 0 1-.032.437.46.46 0 0 1-.52.344.433.433 0 0 1-.415-.415c-.012-.119-.011-.241-.011-.361v-13.729a2.4 2.4 0 0 1 .013-.36.459.459 0 0 1 .448-.435.465.465 0 0 1 .49.391 1.733 1.733 0 0 1 .027.438v6.825z" class="cls-1" data-name="Path 180" transform="translate(-2877.211 -438.227)"/>
                <path id="Path_181" d="M2943.475 448.223v6.825a2.883 2.883 0 0 1-.012.4.482.482 0 0 1-.956-.007 1.917 1.917 0 0 1-.009-.281v-13.89a1.729 1.729 0 0 1 .01-.28.509.509 0 0 1 .46-.431.493.493 0 0 1 .487.4 2.354 2.354 0 0 1 .02.44v6.824z" class="cls-1" data-name="Path 181" transform="translate(-2920.553 -438.211)"/>
                <path id="Path_182" d="M2956.536 425.952h2.13c.5 0 .684.175.686.675.005 1.433 0 2.866 0 4.3a.922.922 0 0 1-.048.356.461.461 0 0 1-.506.311.427.427 0 0 1-.419-.367 3.627 3.627 0 0 1-.037-.52v-3.335c0-.427-.005-.431-.423-.432h-3.416a2.12 2.12 0 0 1-.4-.02.5.5 0 0 1-.422-.51.473.473 0 0 1 .446-.444 5.885 5.885 0 0 1 .642-.013q.883-.003 1.767-.001z" class="cls-1" data-name="Path 182" transform="translate(-2929.936 -425.95)"/>
                <path id="Path_183" d="M2956.514 540.514h-2.087a1.521 1.521 0 0 1-.358-.026.471.471 0 0 1-.38-.459.5.5 0 0 1 .4-.483 2.25 2.25 0 0 1 .4-.018h3.451c.4 0 .406-.01.407-.405v-3.33a3.173 3.173 0 0 1 .026-.48.479.479 0 0 1 .476-.452.492.492 0 0 1 .49.443 1.7 1.7 0 0 1 .018.32v4.133c0 .6-.162.759-.761.761-.696-.002-1.387-.004-2.082-.004z" class="cls-1" data-name="Path 183" transform="translate(-2929.945 -517.348)"/>
                <path id="Path_184" d="M2808.9 425.958h2.047a1.71 1.71 0 0 1 .32.016.462.462 0 0 1 .42.464.471.471 0 0 1-.4.483 1.747 1.747 0 0 1-.4.024h-3.452c-.416 0-.419 0-.42.43v3.372a3.78 3.78 0 0 1-.011.4.482.482 0 0 1-.465.461.5.5 0 0 1-.5-.431 1.811 1.811 0 0 1-.017-.32v-4.135c0-.608.156-.765.754-.767.703.001 1.412.003 2.124.003z" class="cls-1" data-name="Path 184" transform="translate(-2806.013 -425.956)"/>
                <path id="Path_185" d="M2808.853 540.511h-2.088c-.583 0-.75-.161-.751-.731v-4.176-.161c.025-.378.222-.6.52-.589.281.011.463.221.468.589.01.789 0 1.579 0 2.369v1.325c0 .375.012.383.385.384h3.493a2.429 2.429 0 0 1 .361.013.5.5 0 0 1 .437.495.475.475 0 0 1-.424.464 2.334 2.334 0 0 1-.4.016q-.997.004-2.001.002z" class="cls-1" data-name="Path 185" transform="translate(-2806.012 -517.345)"/>
                <path id="Path_186" d="M2823.483 549.388h1.964a2.03 2.03 0 0 1 .36.017.453.453 0 0 1 .4.437.478.478 0 0 1-.367.5 1.562 1.562 0 0 1-.358.029H2821.313c-.408-.014-.634-.2-.624-.52.01-.3.225-.463.63-.466.721-.001 1.443.003 2.164.003z" class="cls-1" data-name="Path 186" transform="translate(-2818.329 -529.541)"/>
                <path id="Path_187" d="M2908.8 550.38h-1.481a.569.569 0 0 1-.471-.171.482.482 0 0 1 .288-.8 1.771 1.771 0 0 1 .319-.016h2.923c.355.022.566.211.558.5s-.218.472-.573.486c-.267.01-.534 0-.8 0z" class="cls-1" data-name="Path 187" transform="translate(-2890.533 -529.546)"/>
                <path id="Path_188" d="M2866.111 550.37c-.373 0-.747.018-1.119-.006a.484.484 0 0 1-.479-.494c0-.272.207-.456.532-.478h.04c.707 0 1.413-.006 2.12 0 .357 0 .558.2.553.49s-.215.479-.566.49-.72 0-1.08 0z" class="cls-1" data-name="Path 188" transform="translate(-2855.107 -529.542)"/>
                <path id="Path_189" d="M2959.481 550.363c-.253 0-.507.012-.759 0a.52.52 0 0 1-.54-.523c.016-.273.216-.45.553-.456.506-.009 1.013-.01 1.519 0a.473.473 0 0 1 .514.447.51.51 0 0 1-.488.53.6.6 0 0 1-.08 0h-.72z" class="cls-1" data-name="Path 189" transform="translate(-2933.716 -529.53)"/>
                <path id="Path_190" d="M2891.835 549.969a.516.516 0 0 1-.519.448.5.5 0 0 1-.453-.548.47.47 0 0 1 .532-.417.482.482 0 0 1 .44.517z" class="cls-1" data-name="Path 190" transform="translate(-2877.219 -529.594)"/>
                <path id="Path_191" d="M2943.457 549.945a.493.493 0 0 1-.482.485.5.5 0 0 1-.494-.516.482.482 0 0 1 .506-.454.466.466 0 0 1 .47.485z" class="cls-1" data-name="Path 191" transform="translate(-2920.54 -529.602)"/>
            </g>
        </g>
    </g>
</svg>
